<svg id="visual" viewBox="0 0 900 300" width="900" height="300" xmlns="http://www.w3.org/2000/svg" xmlns:xlink="http://www.w3.org/1999/xlink" version="1.1"><rect x="0" y="0" width="900" height="300" fill="#3700B3"></rect><path d="M0 168L25 178C50 188 100 208 150 207.3C200 206.7 250 185.3 300 175.2C350 165 400 166 450 177C500 188 550 209 600 213C650 217 700 204 750 193.3C800 182.7 850 174.3 875 170.2L900 166L900 301L875 301C850 301 800 301 750 301C700 301 650 301 600 301C550 301 500 301 450 301C400 301 350 301 300 301C250 301 200 301 150 301C100 301 50 301 25 301L0 301Z" fill="#6200ee"></path><path d="M0 243L25 239.3C50 235.7 100 228.3 150 223.7C200 219 250 217 300 217C350 217 400 219 450 217.2C500 215.3 550 209.7 600 213.8C650 218 700 232 750 240C800 248 850 250 875 251L900 252L900 301L875 301C850 301 800 301 750 301C700 301 650 301 600 301C550 301 500 301 450 301C400 301 350 301 300 301C250 301 200 301 150 301C100 301 50 301 25 301L0 301Z" fill="#b888f1"></path><path d="M0 258L25 261.3C50 264.7 100 271.3 150 268.5C200 265.7 250 253.3 300 247C350 240.7 400 240.3 450 246.3C500 252.3 550 264.7 600 271C650 277.3 700 277.7 750 274.8C800 272 850 266 875 263L900 260L900 301L875 301C850 301 800 301 750 301C700 301 650 301 600 301C550 301 500 301 450 301C400 301 350 301 300 301C250 301 200 301 150 301C100 301 50 301 25 301L0 301Z" fill="#efefef"></path></svg>