<?xml version="1.0" standalone="no"?>
<!DOCTYPE svg PUBLIC "-//W3C//DTD SVG 20010904//EN"
 "http://www.w3.org/TR/2001/REC-SVG-20010904/DTD/svg10.dtd">
<svg version="1.0" xmlns="http://www.w3.org/2000/svg"
 width="512.000000pt" height="512.000000pt" viewBox="0 0 512.000000 512.000000"
 preserveAspectRatio="xMidYMid meet">

<g transform="translate(0.000000,512.000000) scale(0.100000,-0.100000)"
fill="#D9D9D9" stroke="none">
<path d="M4490 4904 c-236 -63 -369 -323 -282 -551 l20 -52 -375 -335 -374
-334 -67 31 c-188 88 -416 18 -533 -163 l-16 -25 -274 64 c-156 36 -279 69
-285 77 -6 8 -14 36 -17 63 -14 117 -114 247 -235 304 -63 30 -74 32 -177 32
-104 0 -114 -2 -176 -32 -81 -40 -169 -130 -207 -210 -24 -52 -27 -70 -27
-168 0 -92 4 -118 22 -157 l21 -46 -336 -309 c-186 -169 -355 -325 -378 -345
l-40 -37 -51 25 c-249 124 -548 -32 -596 -310 -47 -277 202 -526 479 -479 264
45 419 314 325 563 -20 52 -20 55 -3 71 9 9 178 163 375 344 l359 327 52 -25
c112 -55 244 -56 363 -2 50 23 137 100 178 158 l20 29 279 -66 c154 -36 280
-67 281 -68 1 -2 7 -32 13 -67 39 -221 255 -377 473 -342 262 43 423 316 329
562 -11 29 -19 53 -17 54 1 1 170 151 375 334 l372 332 54 -26 c304 -149 655
110 599 441 -43 248 -282 403 -523 338z m211 -212 c168 -87 151 -330 -27 -398
-143 -54 -302 65 -292 218 8 116 105 208 218 208 33 0 64 -9 101 -28z m-2720
-898 c55 -30 92 -79 109 -142 39 -150 -112 -301 -263 -261 -163 42 -223 242
-109 363 65 69 177 86 263 40z m1381 -329 c50 -35 98 -120 98 -173 0 -192
-218 -297 -361 -174 -121 103 -99 289 43 361 64 33 161 26 220 -14z m-2741
-913 c168 -87 151 -330 -27 -398 -143 -54 -302 65 -292 218 8 116 105 208 218
208 33 0 64 -9 101 -28z"/>
<path d="M4144 3690 c-12 -4 -31 -21 -43 -36 l-21 -27 0 -1674 c0 -1820 -3
-1715 55 -1741 37 -17 893 -17 930 0 58 26 55 -80 55 1742 l0 1676 -29 32 -29
33 -449 2 c-246 1 -458 -2 -469 -7z m776 -1740 l0 -1550 -320 0 -320 0 0 1550
0 1550 320 0 320 0 0 -1550z"/>
<path d="M1414 2790 c-12 -5 -29 -19 -38 -32 -14 -20 -16 -139 -16 -1260 l0
-1237 24 -28 24 -28 461 -3 460 -3 33 30 33 29 0 1242 0 1242 -33 29 -32 29
-448 -1 c-246 0 -457 -4 -468 -9z m786 -1290 l0 -1100 -320 0 -320 0 0 1100 0
1100 320 0 320 0 0 -1100z"/>
<path d="M2771 2466 c-52 -29 -50 17 -51 -1124 0 -1155 -2 -1104 55 -1130 19
-9 147 -12 471 -12 l446 0 34 34 34 34 0 1072 0 1072 -34 34 -34 34 -449 0
c-353 -1 -453 -4 -472 -14z m789 -1126 l0 -940 -320 0 -320 0 0 940 0 940 320
0 320 0 0 -940z"/>
<path d="M64 1550 c-12 -4 -31 -21 -43 -36 -21 -27 -21 -29 -21 -630 0 -446 3
-610 12 -629 25 -54 30 -55 507 -55 320 0 447 3 466 12 56 25 55 15 55 672 l0
606 -29 32 -29 33 -449 2 c-246 1 -458 -2 -469 -7z m776 -670 l0 -480 -320 0
-320 0 0 480 0 480 320 0 320 0 0 -480z"/>
</g>
</svg>
