<?xml version="1.0" encoding="UTF-8"?>
<svg xmlns="http://www.w3.org/2000/svg" xmlns:xlink="http://www.w3.org/1999/xlink" width="26px" height="px" viewBox="0 0 26 26" version="1.1">
<g id="surface1">
<path style=" stroke:none;fill-rule:nonzero;fill:#D9D9D9;fill-opacity:1;" d="M 3.25 5.6875 C 2.804688 5.6875 2.4375 6.054688 2.4375 6.5 L 2.4375 7.621094 L 11.195312 14.8125 C 12.25 15.675781 13.757812 15.675781 14.808594 14.8125 L 23.5625 7.621094 L 23.5625 6.5 C 23.5625 6.054688 23.195312 5.6875 22.75 5.6875 Z M 2.4375 10.777344 L 2.4375 19.5 C 2.4375 19.945312 2.804688 20.3125 3.25 20.3125 L 22.75 20.3125 C 23.195312 20.3125 23.5625 19.945312 23.5625 19.5 L 23.5625 10.777344 L 16.351562 16.695312 C 14.402344 18.296875 11.59375 18.296875 9.648438 16.695312 Z M 0 6.5 C 0 4.707031 1.457031 3.25 3.25 3.25 L 22.75 3.25 C 24.542969 3.25 26 4.707031 26 6.5 L 26 19.5 C 26 21.292969 24.542969 22.75 22.75 22.75 L 3.25 22.75 C 1.457031 22.75 0 21.292969 0 19.5 Z M 0 6.5 "/>
</g>
</svg>
