<?xml version="1.0" standalone="no"?>
<!DOCTYPE svg PUBLIC "-//W3C//DTD SVG 20010904//EN"
 "http://www.w3.org/TR/2001/REC-SVG-20010904/DTD/svg10.dtd">
<svg version="1.0" xmlns="http://www.w3.org/2000/svg"
 width="512.000000pt" height="512.000000pt" viewBox="0 0 512.000000 512.000000"
 preserveAspectRatio="xMidYMid meet">

<g transform="translate(0.000000,512.000000) scale(0.100000,-0.100000)"
fill="#262626" stroke="none">
<path d="M337 5096 c-32 -14 -76 -37 -98 -52 -58 -40 -155 -148 -183 -202 -57
-112 -56 -102 -56 -790 0 -626 0 -635 21 -668 11 -19 40 -45 63 -59 l43 -25
1427 0 c1412 0 1427 0 1466 20 22 11 52 39 67 62 l28 42 3 768 c2 544 -1 781
-9 811 -6 24 -26 57 -49 79 l-38 38 -1313 0 -1314 0 -58 -24z"/>
<path d="M3543 5088 c-67 -71 -63 -17 -63 -869 0 -765 0 -773 21 -816 12 -24
37 -56 57 -71 l35 -27 705 -3 705 -2 42 24 c81 48 76 -7 73 753 l-3 678 -31
66 c-47 98 -155 209 -252 257 l-76 37 -591 3 -591 2 -31 -32z"/>
<path d="M105 2918 c-34 -19 -79 -59 -92 -82 -9 -16 -12 -153 -13 -545 0 -514
0 -524 21 -557 11 -19 42 -47 67 -62 l47 -27 2430 0 2430 0 46 27 c84 50 79 8
79 623 l0 546 -28 26 c-15 14 -40 34 -57 44 -29 18 -109 19 -2470 19 -1794 -1
-2445 -4 -2460 -12z"/>
<path d="M93 1261 c-23 -11 -52 -35 -67 -57 l-26 -39 0 -361 c0 -396 2 -413
62 -527 37 -68 156 -186 225 -221 112 -56 112 -56 695 -56 579 0 567 -1 614
52 55 60 54 47 54 583 0 399 -3 502 -14 528 -17 39 -71 92 -109 106 -19 8
-253 11 -710 11 -646 0 -684 -1 -724 -19z"/>
<path d="M2125 1266 c-42 -19 -94 -76 -105 -117 -14 -47 -13 -972 0 -1021 6
-21 22 -51 37 -68 54 -64 -41 -60 1356 -60 1393 0 1312 -3 1432 57 77 39 198
167 237 249 l33 69 3 403 c3 392 2 404 -18 432 -11 15 -40 38 -63 49 -43 21
-44 21 -1463 21 -1165 -1 -1424 -3 -1449 -14z"/>
</g>
</svg>
