<?xml version="1.0" encoding="UTF-8"?>
<svg xmlns="http://www.w3.org/2000/svg" xmlns:xlink="http://www.w3.org/1999/xlink" width="26px" height="px" viewBox="0 0 26 26" version="1.1">
<g id="surface1">
<path style=" stroke:none;fill-rule:nonzero;fill:#D9D9D9;fill-opacity:1;" d="M 1.710938 0.121094 C 1.546875 0.191406 1.324219 0.308594 1.214844 0.386719 C 0.917969 0.589844 0.425781 1.136719 0.285156 1.410156 C -0.00390625 1.980469 0 1.929688 0 5.421875 C 0 8.601562 0 8.648438 0.105469 8.816406 C 0.164062 8.914062 0.308594 9.042969 0.425781 9.117188 L 0.644531 9.242188 L 7.890625 9.242188 C 15.0625 9.242188 15.136719 9.242188 15.335938 9.140625 C 15.449219 9.085938 15.601562 8.941406 15.675781 8.824219 L 15.820312 8.613281 L 15.832031 4.710938 C 15.84375 1.949219 15.828125 0.746094 15.789062 0.59375 C 15.757812 0.472656 15.65625 0.304688 15.539062 0.191406 L 15.347656 0 L 2.007812 0 Z M 1.710938 0.121094 "/>
<path style=" stroke:none;fill-rule:nonzero;fill:#D9D9D9;fill-opacity:1;" d="M 17.992188 0.164062 C 17.652344 0.523438 17.671875 0.25 17.671875 4.574219 C 17.671875 8.460938 17.671875 8.5 17.777344 8.71875 C 17.839844 8.839844 17.964844 9.003906 18.066406 9.078125 L 18.246094 9.21875 L 21.824219 9.230469 L 25.40625 9.242188 L 25.617188 9.121094 C 26.03125 8.875 26.003906 9.15625 25.988281 5.296875 L 25.976562 1.851562 L 25.816406 1.519531 C 25.578125 1.019531 25.03125 0.457031 24.539062 0.214844 L 24.152344 0.0234375 L 21.148438 0.0117188 L 18.148438 0 Z M 17.992188 0.164062 "/>
<path style=" stroke:none;fill-rule:nonzero;fill:#D9D9D9;fill-opacity:1;" d="M 0.53125 11.183594 C 0.359375 11.277344 0.132812 11.480469 0.0664062 11.597656 C 0.0195312 11.679688 0.00390625 12.375 0 14.367188 C 0 16.976562 0 17.027344 0.105469 17.195312 C 0.164062 17.289062 0.320312 17.433594 0.445312 17.507812 L 0.6875 17.648438 L 25.367188 17.648438 L 25.597656 17.507812 C 26.023438 17.253906 26 17.46875 26 14.34375 L 26 11.574219 L 25.859375 11.441406 C 25.78125 11.371094 25.65625 11.269531 25.570312 11.21875 C 25.421875 11.125 25.015625 11.121094 13.023438 11.121094 C 3.914062 11.125 0.609375 11.140625 0.53125 11.183594 Z M 0.53125 11.183594 "/>
<path style=" stroke:none;fill-rule:nonzero;fill:#D9D9D9;fill-opacity:1;" d="M 0.472656 19.597656 C 0.355469 19.652344 0.207031 19.773438 0.132812 19.886719 L 0 20.085938 L 0 21.917969 C 0 23.929688 0.0117188 24.015625 0.316406 24.59375 C 0.503906 24.9375 1.105469 25.539062 1.457031 25.714844 C 2.027344 26 2.027344 26 4.988281 26 C 7.925781 26 7.867188 26.003906 8.105469 25.734375 C 8.382812 25.429688 8.378906 25.496094 8.378906 22.773438 C 8.378906 20.75 8.363281 20.226562 8.308594 20.09375 C 8.222656 19.894531 7.945312 19.625 7.753906 19.554688 C 7.65625 19.515625 6.46875 19.5 4.148438 19.5 C 0.867188 19.5 0.675781 19.503906 0.472656 19.597656 Z M 0.472656 19.597656 "/>
<path style=" stroke:none;fill-rule:nonzero;fill:#D9D9D9;fill-opacity:1;" d="M 10.789062 19.570312 C 10.578125 19.667969 10.3125 19.957031 10.257812 20.164062 C 10.1875 20.402344 10.191406 25.101562 10.257812 25.351562 C 10.289062 25.457031 10.371094 25.609375 10.445312 25.695312 C 10.71875 26.019531 10.238281 26 17.332031 26 C 24.40625 26 23.992188 26.015625 24.601562 25.710938 C 24.996094 25.511719 25.609375 24.863281 25.808594 24.445312 L 25.976562 24.09375 L 25.988281 22.050781 C 26.003906 20.058594 26 19.996094 25.898438 19.855469 C 25.84375 19.78125 25.695312 19.664062 25.578125 19.605469 C 25.359375 19.5 25.355469 19.5 18.148438 19.5 C 12.234375 19.503906 10.917969 19.515625 10.789062 19.570312 Z M 10.789062 19.570312 "/>
</g>
</svg>
