<?xml version="1.0" standalone="no"?>
<!DOCTYPE svg PUBLIC "-//W3C//DTD SVG 20010904//EN"
 "http://www.w3.org/TR/2001/REC-SVG-20010904/DTD/svg10.dtd">
<svg version="1.0" xmlns="http://www.w3.org/2000/svg"
 width="512.000000pt" height="512.000000pt" viewBox="0 0 512.000000 512.000000"
 preserveAspectRatio="xMidYMid meet">

<g transform="translate(0.000000,512.000000) scale(0.100000,-0.100000)"
fill="#D9D9D9" stroke="none">
<path d="M320 4947 c-49 -16 -133 -102 -148 -153 -17 -58 -18 -4408 0 -4465
16 -55 73 -118 132 -145 l51 -24 672 0 c369 0 679 3 688 6 25 10 47 62 40 95
-14 61 15 59 -718 59 l-668 0 -24 25 -25 24 0 2191 0 2191 25 24 24 25 1256 0
1255 0 0 -216 c0 -136 4 -231 12 -255 16 -55 73 -118 132 -145 49 -23 61 -24
274 -24 l222 0 0 -335 0 -336 25 -24 c32 -33 78 -33 110 0 l25 24 0 393 0 393
-343 342 -342 343 -1320 -1 c-932 -1 -1330 -4 -1355 -12z m2905 -447 l180
-180 -158 0 c-154 0 -158 1 -182 25 -24 24 -25 28 -25 180 0 85 1 155 3 155 1
0 83 -81 182 -180z"/>
<path d="M1125 4295 c-16 -15 -25 -36 -25 -55 0 -19 9 -40 25 -55 l24 -25 681
0 681 0 24 25 c16 15 25 36 25 55 0 19 -9 40 -25 55 l-24 25 -681 0 -681 0
-24 -25z"/>
<path d="M665 3815 c-16 -15 -25 -36 -25 -55 0 -19 9 -40 25 -55 l24 -25 1231
0 1231 0 24 25 c33 32 33 78 0 110 l-24 25 -1231 0 -1231 0 -24 -25z"/>
<path d="M665 3335 c-16 -15 -25 -36 -25 -55 0 -19 9 -40 25 -55 24 -25 26
-25 215 -25 189 0 191 0 215 25 16 15 25 36 25 55 0 19 -9 40 -25 55 -24 25
-26 25 -215 25 -189 0 -191 0 -215 -25z"/>
<path d="M1285 3335 c-16 -15 -25 -36 -25 -55 0 -19 9 -40 25 -55 l24 -25 841
0 841 0 24 25 c16 15 25 36 25 55 0 19 -9 40 -25 55 l-24 25 -841 0 -841 0
-24 -25z"/>
<path d="M3343 3137 c-128 -128 -143 -146 -143 -177 0 -31 23 -57 282 -317
l283 -283 -303 -303 -302 -302 -182 182 -183 183 243 243 c216 217 242 246
242 275 0 44 -38 82 -82 82 -29 0 -58 -25 -275 -242 l-242 -241 -45 41 c-76
70 -85 67 -253 -101 -129 -128 -143 -146 -143 -177 0 -32 27 -62 383 -417 355
-356 385 -383 417 -383 31 0 49 14 177 143 168 168 171 177 101 253 l-42 45
166 166 165 165 579 -463 c318 -255 589 -479 601 -498 44 -65 23 -181 -43
-243 -62 -58 -169 -76 -230 -39 -18 11 -206 237 -419 503 -213 266 -396 491
-407 501 -29 25 -80 22 -106 -6 -49 -52 -53 -46 384 -592 424 -528 445 -551
539 -576 22 -6 74 -9 116 -7 189 11 336 158 347 347 2 42 -1 94 -7 116 -26 97
-43 113 -655 602 l-585 468 79 79 79 80 45 -42 c76 -70 85 -67 253 101 129
128 143 146 143 177 0 32 -27 62 -383 417 -355 356 -385 383 -417 383 -31 0
-49 -14 -177 -143z m482 -357 l300 -300 -63 -62 -62 -63 -302 302 -303 303 60
60 c33 33 62 60 65 60 3 0 140 -135 305 -300z m-960 -960 l300 -300 -63 -62
-62 -63 -302 302 -303 303 60 60 c33 33 62 60 65 60 3 0 140 -135 305 -300z"/>
<path d="M683 2868 c-33 -16 -48 -61 -33 -98 7 -17 21 -35 31 -40 11 -6 420
-10 1084 -10 664 0 1073 4 1084 10 31 16 46 65 31 100 -7 17 -21 35 -31 40
-26 14 -2137 12 -2166 -2z"/>
<path d="M665 2375 c-16 -15 -25 -36 -25 -55 0 -19 9 -40 25 -55 l24 -25 351
0 351 0 24 25 c16 15 25 36 25 55 0 19 -9 40 -25 55 l-24 25 -351 0 -351 0
-24 -25z"/>
<path d="M1625 2375 c-16 -15 -25 -36 -25 -55 0 -19 9 -40 25 -55 24 -25 26
-25 215 -25 189 0 191 0 215 25 16 15 25 36 25 55 0 19 -9 40 -25 55 -24 25
-26 25 -215 25 -189 0 -191 0 -215 -25z"/>
<path d="M665 1895 c-16 -15 -25 -36 -25 -55 0 -19 9 -40 25 -55 l24 -25 631
0 631 0 24 25 c16 15 25 36 25 55 0 19 -9 40 -25 55 l-24 25 -631 0 -631 0
-24 -25z"/>
<path d="M665 1415 c-16 -15 -25 -36 -25 -55 0 -19 9 -40 25 -55 24 -25 25
-25 225 -25 200 0 201 0 225 25 33 32 33 78 0 110 -24 25 -25 25 -225 25 -200
0 -201 0 -225 -25z"/>
<path d="M1305 1415 c-16 -15 -25 -36 -25 -55 0 -19 9 -40 25 -55 l24 -25 511
0 511 0 24 25 c16 15 25 36 25 55 0 19 -9 40 -25 55 l-24 25 -511 0 -511 0
-24 -25z"/>
<path d="M665 935 c-16 -15 -25 -36 -25 -55 0 -19 9 -40 25 -55 l24 -25 551 0
551 0 24 25 c33 32 33 78 0 110 l-24 25 -551 0 -551 0 -24 -25z"/>
<path d="M2185 935 c-24 -23 -25 -29 -25 -160 0 -118 -2 -135 -16 -135 -77 0
-189 -88 -212 -166 -7 -23 -12 -92 -12 -153 0 -105 1 -113 25 -136 l24 -25
831 0 831 0 24 25 c24 23 25 31 25 136 0 132 -11 175 -59 230 -36 43 -118 89
-158 89 -23 0 -23 2 -23 135 0 131 -1 137 -25 160 l-24 25 -591 0 -591 0 -24
-25z m1095 -215 l0 -80 -95 0 c-88 0 -98 -2 -120 -25 -16 -15 -25 -36 -25 -55
0 -19 9 -40 25 -55 24 -25 26 -25 215 -25 189 0 191 0 215 -25 21 -20 25 -34
25 -80 l0 -55 -720 0 -720 0 0 55 c0 46 4 60 25 80 l24 25 351 0 351 0 24 25
c16 15 25 36 25 55 0 19 -9 40 -25 55 l-24 25 -256 0 -255 0 0 80 0 80 480 0
480 0 0 -80z"/>
</g>
</svg>
