<?xml version="1.0" encoding="UTF-8"?>
<svg xmlns="http://www.w3.org/2000/svg" xmlns:xlink="http://www.w3.org/1999/xlink" width="26px" height="px" viewBox="0 0 26 21" version="1.1">
<g id="surface1">
<path style=" stroke:none;fill-rule:nonzero;fill:#262626;fill-opacity:1;" d="M 11.058594 2.648438 L 8.980469 4.746094 C 8.359375 4.917969 7.785156 5.234375 7.296875 5.667969 L 6.214844 6.640625 C 5.800781 7.015625 5.261719 7.21875 4.703125 7.21875 L 3.898438 7.21875 L 3.898438 12.46875 C 4.730469 12.492188 5.515625 12.832031 6.105469 13.429688 L 7.550781 14.890625 L 7.835938 15.175781 L 8.933594 16.28125 C 9.183594 16.539062 9.601562 16.539062 9.851562 16.28125 C 9.921875 16.214844 9.972656 16.132812 10 16.046875 C 10.117188 15.730469 10.378906 15.492188 10.703125 15.417969 C 11.03125 15.34375 11.371094 15.441406 11.605469 15.683594 L 12.046875 16.117188 C 12.515625 16.59375 13.28125 16.59375 13.746094 16.117188 C 13.96875 15.898438 14.085938 15.613281 14.097656 15.324219 C 14.113281 14.960938 14.324219 14.640625 14.648438 14.488281 C 14.972656 14.332031 15.351562 14.363281 15.640625 14.574219 C 16.023438 14.847656 16.554688 14.8125 16.894531 14.464844 C 17.277344 14.082031 17.277344 13.457031 16.894531 13.074219 L 13.816406 9.96875 L 12.363281 11.320312 C 11.253906 12.355469 9.550781 12.371094 8.421875 11.355469 C 7.132812 10.199219 7.105469 8.183594 8.355469 6.988281 L 11.203125 4.273438 C 12.316406 3.214844 13.789062 2.625 15.320312 2.625 C 16.785156 2.625 18.203125 3.171875 19.296875 4.152344 L 20.519531 5.25 L 25.351562 5.25 C 25.707031 5.25 26 5.546875 26 5.90625 L 26 14.4375 C 26 15.164062 25.417969 15.75 24.699219 15.75 L 23.398438 15.75 C 22.921875 15.75 22.5 15.488281 22.273438 15.09375 L 18.824219 15.09375 C 18.6875 15.367188 18.503906 15.632812 18.277344 15.859375 C 17.582031 16.5625 16.621094 16.835938 15.71875 16.683594 C 15.570312 16.984375 15.371094 17.261719 15.125 17.515625 C 14.015625 18.632812 12.28125 18.742188 11.046875 17.847656 C 10.027344 18.699219 8.507812 18.644531 7.550781 17.679688 L 6.460938 16.570312 L 6.175781 16.28125 L 4.730469 14.824219 C 4.503906 14.597656 4.210938 14.464844 3.898438 14.441406 C 3.898438 15.164062 3.316406 15.75 2.601562 15.75 L 1.300781 15.75 C 0.582031 15.75 0 15.164062 0 14.4375 L 0 5.90625 C 0 5.546875 0.292969 5.25 0.648438 5.25 L 4.703125 5.25 C 4.785156 5.25 4.863281 5.222656 4.917969 5.167969 L 5.996094 4.199219 C 7.128906 3.1875 8.589844 2.625 10.101562 2.625 L 10.523438 2.625 C 10.699219 2.625 10.882812 2.632812 11.058594 2.648438 Z M 22.101562 13.125 L 22.101562 7.21875 L 20.148438 7.21875 C 19.910156 7.21875 19.679688 7.128906 19.503906 6.96875 L 18.003906 5.625 C 17.265625 4.957031 16.3125 4.59375 15.320312 4.59375 C 14.289062 4.59375 13.296875 4.992188 12.546875 5.707031 L 9.695312 8.421875 C 9.277344 8.824219 9.285156 9.5 9.71875 9.882812 C 10.09375 10.226562 10.667969 10.21875 11.039062 9.871094 L 13.957031 7.148438 C 14.351562 6.78125 14.96875 6.804688 15.335938 7.207031 C 15.703125 7.609375 15.675781 8.226562 15.277344 8.597656 L 15.246094 8.628906 L 18.269531 11.679688 C 18.675781 12.089844 18.9375 12.597656 19.058594 13.121094 L 22.101562 13.121094 Z M 2.601562 13.78125 C 2.601562 13.417969 2.308594 13.125 1.949219 13.125 C 1.589844 13.125 1.300781 13.417969 1.300781 13.78125 C 1.300781 14.144531 1.589844 14.4375 1.949219 14.4375 C 2.308594 14.4375 2.601562 14.144531 2.601562 13.78125 Z M 24.050781 14.4375 C 24.410156 14.4375 24.699219 14.144531 24.699219 13.78125 C 24.699219 13.417969 24.410156 13.125 24.050781 13.125 C 23.691406 13.125 23.398438 13.417969 23.398438 13.78125 C 23.398438 14.144531 23.691406 14.4375 24.050781 14.4375 Z M 24.050781 14.4375 "/>
</g>
</svg>
