<?xml version="1.0" encoding="UTF-8"?>
<svg xmlns="http://www.w3.org/2000/svg" xmlns:xlink="http://www.w3.org/1999/xlink" width="26px" height="px" viewBox="0 0 26 26" version="1.1">
<g id="surface1">
<path style=" stroke:none;fill-rule:nonzero;fill:#262626;fill-opacity:1;" d="M 11.730469 1.929688 C 9 2.21875 6.582031 3.355469 4.722656 5.230469 C 3.035156 6.925781 2.035156 8.890625 1.640625 11.273438 C 1.519531 12.015625 1.519531 13.6875 1.640625 14.410156 C 1.847656 15.644531 2.15625 16.605469 2.660156 17.617188 C 3.144531 18.570312 3.761719 19.453125 4.472656 20.199219 L 4.777344 20.519531 L 5.21875 20.113281 C 5.464844 19.894531 5.71875 19.652344 5.785156 19.582031 L 5.910156 19.449219 L 5.757812 19.285156 C 5.675781 19.195312 5.597656 19.109375 5.582031 19.09375 C 5.4375 18.960938 4.925781 18.300781 4.675781 17.9375 C 3.898438 16.777344 3.347656 15.300781 3.199219 13.964844 C 3.128906 13.355469 3.128906 12.265625 3.199219 11.714844 C 3.585938 8.609375 5.523438 5.921875 8.429688 4.46875 C 9.820312 3.773438 11.207031 3.449219 12.796875 3.441406 C 14.019531 3.4375 15.230469 3.640625 16.199219 4.011719 C 16.351562 4.074219 16.558594 4.148438 16.65625 4.1875 C 16.757812 4.226562 17.007812 4.335938 17.214844 4.445312 C 19.535156 5.609375 21.316406 7.652344 22.054688 9.976562 C 22.394531 11.054688 22.5 11.75 22.5 12.929688 L 22.496094 13.644531 L 22.765625 13.679688 C 22.90625 13.695312 23.261719 13.710938 23.546875 13.710938 L 24.066406 13.710938 L 24.101562 13.421875 C 24.148438 13.039062 24.089844 11.84375 23.992188 11.226562 C 23.449219 7.789062 21.347656 4.878906 18.175781 3.183594 C 17.886719 3.027344 17.316406 2.78125 16.757812 2.558594 C 16.238281 2.355469 15.347656 2.136719 14.5 2.007812 C 13.917969 1.910156 12.300781 1.867188 11.730469 1.929688 Z M 11.730469 1.929688 "/>
<path style=" stroke:none;fill-rule:nonzero;fill:#262626;fill-opacity:1;" d="M 12.390625 6.957031 C 12.390625 7.363281 12.375 7.527344 12.328125 7.535156 C 12.292969 7.546875 12.117188 7.597656 11.933594 7.648438 C 10.609375 8.011719 9.785156 8.984375 9.78125 10.179688 C 9.78125 11.015625 10.121094 11.65625 10.832031 12.15625 C 11.277344 12.472656 11.515625 12.59375 12.421875 12.980469 C 13.390625 13.390625 13.734375 13.589844 14.03125 13.910156 C 14.351562 14.25 14.484375 14.535156 14.511719 14.941406 C 14.570312 15.707031 14.09375 16.328125 13.25 16.589844 C 12.867188 16.710938 11.878906 16.710938 11.425781 16.589844 C 11.023438 16.488281 10.640625 16.339844 10.304688 16.171875 C 10.171875 16.101562 10.039062 16.046875 10.015625 16.046875 C 9.964844 16.046875 9.703125 16.734375 9.664062 16.976562 C 9.636719 17.101562 9.660156 17.125 9.972656 17.265625 C 10.574219 17.539062 11.066406 17.667969 11.84375 17.75 L 12.183594 17.785156 L 12.199219 18.328125 L 12.210938 18.867188 L 13.28125 18.867188 L 13.292969 18.300781 L 13.308594 17.738281 L 13.777344 17.601562 C 15.214844 17.175781 15.996094 16.210938 15.996094 14.863281 C 15.996094 14.332031 15.867188 13.882812 15.59375 13.476562 C 15.179688 12.851562 14.59375 12.460938 13.28125 11.902344 C 11.554688 11.175781 11.171875 10.816406 11.234375 9.953125 C 11.304688 8.976562 12.132812 8.5 13.523438 8.632812 C 14.078125 8.6875 14.472656 8.789062 14.863281 8.976562 C 15.035156 9.0625 15.148438 9.09375 15.179688 9.0625 C 15.257812 8.984375 15.578125 8.15625 15.554688 8.09375 C 15.523438 8.011719 14.875 7.738281 14.5 7.648438 C 14.332031 7.605469 14.015625 7.546875 13.800781 7.511719 L 13.410156 7.449219 L 13.394531 6.9375 L 13.382812 6.421875 L 12.886719 6.410156 L 12.390625 6.394531 Z M 12.390625 6.957031 "/>
<path style=" stroke:none;fill-rule:nonzero;fill:#262626;fill-opacity:1;" d="M 21.902344 15.324219 C 21.398438 15.503906 21.121094 15.753906 20.867188 16.238281 C 20.78125 16.417969 20.753906 16.542969 20.753906 16.878906 C 20.753906 17.253906 20.769531 17.332031 20.921875 17.617188 C 21.113281 17.976562 21.328125 18.175781 21.734375 18.367188 C 21.960938 18.480469 22.085938 18.503906 22.421875 18.503906 C 22.78125 18.503906 22.867188 18.484375 23.171875 18.332031 C 23.546875 18.148438 23.789062 17.898438 23.972656 17.523438 C 24.132812 17.203125 24.136719 16.578125 23.984375 16.25 C 23.628906 15.472656 22.671875 15.050781 21.902344 15.324219 Z M 21.902344 15.324219 "/>
<path style=" stroke:none;fill-rule:nonzero;fill:#262626;fill-opacity:1;" d="M 18.277344 20.003906 C 18 20.058594 17.636719 20.296875 17.46875 20.519531 C 17.011719 21.15625 17.234375 22.003906 17.953125 22.367188 C 18.601562 22.699219 19.378906 22.457031 19.71875 21.816406 C 19.871094 21.519531 19.871094 20.976562 19.714844 20.683594 C 19.601562 20.46875 19.277344 20.175781 19.039062 20.074219 C 18.84375 19.992188 18.488281 19.957031 18.277344 20.003906 Z M 18.277344 20.003906 "/>
<path style=" stroke:none;fill-rule:nonzero;fill:#262626;fill-opacity:1;" d="M 7.703125 20.941406 C 7.347656 21.074219 7.160156 21.328125 7.160156 21.683594 C 7.160156 22.230469 7.664062 22.597656 8.207031 22.445312 C 8.449219 22.375 8.710938 22.125 8.765625 21.90625 C 8.921875 21.289062 8.304688 20.722656 7.703125 20.941406 Z M 7.703125 20.941406 "/>
<path style=" stroke:none;fill-rule:nonzero;fill:#262626;fill-opacity:1;" d="M 12.414062 21.769531 C 12.0625 21.859375 11.699219 22.320312 11.644531 22.746094 C 11.578125 23.238281 11.964844 23.78125 12.496094 23.9375 C 12.828125 24.039062 12.816406 24.039062 13.148438 23.9375 C 13.628906 23.796875 14.015625 23.3125 14.015625 22.847656 C 14.015625 22.460938 13.710938 22.007812 13.328125 21.832031 C 13.132812 21.738281 12.664062 21.710938 12.414062 21.769531 Z M 12.414062 21.769531 "/>
</g>
</svg>
