<?xml version="1.0" standalone="no"?>
<!DOCTYPE svg PUBLIC "-//W3C//DTD SVG 20010904//EN"
 "http://www.w3.org/TR/2001/REC-SVG-20010904/DTD/svg10.dtd">
<svg version="1.0" xmlns="http://www.w3.org/2000/svg"
 width="512.000000pt" height="512.000000pt" viewBox="0 0 512.000000 512.000000"
 preserveAspectRatio="xMidYMid meet">

<g transform="translate(0.000000,512.000000) scale(0.100000,-0.100000)"
fill="#262626" stroke="none">
<path d="M2310 4740 c-538 -57 -1014 -281 -1380 -650 -332 -334 -529 -721
-607 -1190 -24 -146 -24 -475 0 -618 41 -243 102 -432 201 -631 95 -188 217
-362 357 -509 l60 -63 87 80 c48 43 98 91 111 105 l25 26 -30 32 c-16 18 -32
35 -35 38 -28 26 -129 156 -178 228 -153 228 -262 519 -291 782 -14 120 -14
335 0 443 76 612 458 1141 1030 1427 274 137 547 201 860 202 241 1 479 -39
670 -112 30 -12 71 -27 90 -35 20 -7 69 -29 110 -50 457 -230 808 -632 953
-1090 67 -212 88 -349 88 -581 l-1 -141 53 -7 c28 -3 98 -6 154 -6 l102 0 7
57 c9 75 -2 311 -21 432 -107 677 -521 1250 -1146 1584 -57 31 -169 79 -279
123 -102 40 -278 83 -445 109 -114 19 -433 27 -545 15z"/>
<path d="M2440 3750 c0 -80 -3 -112 -12 -114 -7 -2 -42 -12 -78 -22 -261 -72
-423 -263 -424 -499 0 -164 67 -290 207 -389 88 -62 135 -86 313 -162 191 -81
259 -120 317 -183 63 -67 89 -123 95 -203 11 -151 -83 -273 -249 -325 -75 -24
-270 -24 -359 0 -79 20 -155 49 -221 82 -26 14 -52 25 -57 25 -10 0 -61 -135
-69 -183 -5 -25 -1 -29 61 -57 118 -54 215 -79 368 -95 l67 -7 3 -107 3 -106
105 0 105 0 3 111 3 111 92 27 c283 84 437 274 437 539 0 105 -25 193 -79 273
-82 123 -197 200 -456 310 -340 143 -415 214 -403 384 14 192 177 286 451 260
109 -11 187 -31 264 -68 34 -17 56 -23 62 -17 16 16 79 179 74 191 -6 16 -134
70 -208 88 -33 8 -95 20 -137 27 l-77 12 -3 101 -3 101 -97 3 -98 3 0 -111z"/>
<path d="M4313 2102 c-99 -35 -154 -84 -204 -180 -17 -35 -22 -60 -22 -126 0
-74 3 -89 33 -145 38 -71 80 -110 160 -148 45 -22 69 -27 135 -27 71 0 88 4
148 34 74 36 122 85 158 159 31 63 32 186 2 251 -70 153 -258 236 -410 182z"/>
<path d="M3599 1181 c-54 -11 -126 -58 -159 -102 -90 -125 -46 -292 95 -364
128 -65 281 -17 348 109 30 58 30 165 -1 223 -22 42 -86 100 -133 120 -38 16
-108 23 -150 14z"/>
<path d="M1517 996 c-70 -26 -107 -76 -107 -146 0 -108 99 -180 206 -150 48
14 99 63 110 106 31 122 -91 233 -209 190z"/>
<path d="M2445 833 c-70 -18 -141 -108 -152 -192 -13 -97 63 -204 168 -235 65
-20 63 -20 128 0 95 28 171 123 171 215 0 76 -60 165 -135 200 -39 18 -131 24
-180 12z"/>
</g>
</svg>
