<?xml version="1.0" encoding="UTF-8"?>
<svg xmlns="http://www.w3.org/2000/svg" xmlns:xlink="http://www.w3.org/1999/xlink" width="26px" height="px" viewBox="0 0 26 26" version="1.1">
<g id="surface1">
<path style=" stroke:none;fill-rule:nonzero;fill:#D9D9D9;fill-opacity:1;" d="M 9.621094 0.0195312 C 7.691406 0.0820312 5.757812 0.742188 4.164062 1.882812 C 2.050781 3.394531 0.59375 5.707031 0.160156 8.230469 C 0.0351562 8.933594 0.015625 9.21875 0.015625 10.007812 C 0.0195312 10.816406 0.0664062 11.289062 0.210938 12.023438 C 0.472656 13.289062 1.070312 14.664062 1.835938 15.726562 C 2.664062 16.878906 3.667969 17.804688 4.871094 18.523438 C 5.800781 19.082031 6.902344 19.515625 7.925781 19.71875 C 8.785156 19.890625 9.023438 19.910156 9.976562 19.910156 C 10.875 19.914062 11.121094 19.890625 11.855469 19.757812 C 13.179688 19.511719 14.578125 18.921875 15.683594 18.136719 L 15.953125 17.945312 L 23.960938 25.976562 L 24.980469 24.960938 L 25.996094 23.945312 L 22 19.945312 C 19.800781 17.742188 18.003906 15.929688 18.003906 15.917969 C 18.003906 15.902344 18.0625 15.808594 18.136719 15.703125 C 18.660156 14.988281 19.136719 14.058594 19.457031 13.097656 C 20.015625 11.441406 20.121094 9.742188 19.769531 7.992188 C 19.589844 7.109375 19.332031 6.351562 18.933594 5.554688 C 18.066406 3.824219 16.765625 2.417969 15.125 1.433594 C 13.476562 0.441406 11.585938 -0.0429688 9.621094 0.0195312 Z M 11.125 2.082031 C 13.261719 2.40625 15.109375 3.503906 16.390625 5.21875 C 17.183594 6.273438 17.6875 7.476562 17.894531 8.808594 C 17.945312 9.136719 17.957031 9.328125 17.957031 9.949219 C 17.960938 10.738281 17.941406 10.96875 17.8125 11.566406 C 17.664062 12.285156 17.488281 12.800781 17.167969 13.460938 C 15.761719 16.351562 12.703125 18.136719 9.515625 17.925781 C 6.621094 17.742188 4.128906 16.09375 2.839844 13.519531 C 2.4375 12.714844 2.203125 11.960938 2.058594 11.007812 C 2 10.625 2.007812 9.234375 2.070312 8.855469 C 2.195312 8.09375 2.378906 7.457031 2.65625 6.8125 C 3.59375 4.648438 5.484375 2.976562 7.730469 2.332031 C 8.292969 2.167969 8.726562 2.089844 9.425781 2.019531 C 9.714844 1.988281 10.765625 2.03125 11.125 2.082031 Z M 11.125 2.082031 "/>
</g>
</svg>
