<?xml version="1.0" standalone="no"?>
<!DOCTYPE svg PUBLIC "-//W3C//DTD SVG 20010904//EN"
 "http://www.w3.org/TR/2001/REC-SVG-20010904/DTD/svg10.dtd">
<svg version="1.0" xmlns="http://www.w3.org/2000/svg"
 width="920.000000pt" height="922.000000pt" viewBox="0 0 920.000000 922.000000"
 preserveAspectRatio="xMidYMid meet">

<g transform="translate(0.000000,922.000000) scale(0.100000,-0.100000)"
fill="#262626" stroke="none">
<path d="M3405 9213 c-684 -22 -1368 -256 -1932 -661 -747 -536 -1263 -1356
-1417 -2252 -43 -250 -51 -351 -50 -630 1 -287 17 -455 69 -715 92 -450 304
-937 574 -1314 293 -409 649 -738 1074 -993 330 -198 720 -351 1082 -423 304
-61 388 -69 725 -69 318 -1 405 7 665 55 469 87 963 296 1355 574 l95 68 1417
-1424 1417 -1424 360 360 359 360 -1414 1419 c-778 781 -1414 1424 -1414 1429
0 5 22 39 48 76 185 253 353 584 467 924 198 588 235 1191 110 1812 -63 313
-154 581 -296 865 -306 613 -766 1112 -1347 1462 -583 351 -1253 523 -1947
501z m532 -732 c755 -114 1409 -504 1863 -1112 280 -374 458 -802 532 -1274
18 -117 22 -184 22 -405 1 -280 -6 -362 -51 -574 -53 -255 -115 -437 -228
-671 -498 -1026 -1580 -1659 -2708 -1585 -1024 66 -1906 650 -2362 1563 -143
286 -226 554 -277 892 -20 136 -17 629 5 763 44 271 109 497 207 725 331 768
1001 1361 1795 1590 199 58 353 86 600 111 103 10 475 -4 602 -23z"/>
</g>
</svg>
