<?xml version="1.0" encoding="UTF-8"?>
<svg xmlns="http://www.w3.org/2000/svg" xmlns:xlink="http://www.w3.org/1999/xlink" width="26px" height="px" viewBox="0 0 26 26" version="1.1">
<g id="surface1">
<path style=" stroke:none;fill-rule:nonzero;fill:#262626;fill-opacity:1;" d="M 25.183594 8.460938 C 25.34375 8.902344 25.207031 9.394531 24.859375 9.710938 L 22.660156 11.710938 C 22.714844 12.132812 22.746094 12.5625 22.746094 13 C 22.746094 13.4375 22.714844 13.867188 22.660156 14.289062 L 24.859375 16.289062 C 25.207031 16.605469 25.34375 17.097656 25.183594 17.539062 C 24.960938 18.144531 24.691406 18.722656 24.378906 19.28125 L 24.140625 19.691406 C 23.804688 20.25 23.429688 20.78125 23.019531 21.277344 C 22.71875 21.644531 22.222656 21.765625 21.773438 21.621094 L 18.945312 20.722656 C 18.265625 21.246094 17.515625 21.683594 16.710938 22.015625 L 16.078125 24.914062 C 15.976562 25.375 15.621094 25.742188 15.152344 25.816406 C 14.453125 25.933594 13.730469 25.996094 12.996094 25.996094 C 12.257812 25.996094 11.539062 25.933594 10.835938 25.816406 C 10.371094 25.742188 10.015625 25.375 9.914062 24.914062 L 9.277344 22.015625 C 8.476562 21.683594 7.722656 21.246094 7.042969 20.722656 L 4.21875 21.628906 C 3.773438 21.769531 3.273438 21.644531 2.976562 21.28125 C 2.5625 20.785156 2.1875 20.257812 1.851562 19.699219 L 1.613281 19.285156 C 1.304688 18.726562 1.035156 18.148438 0.8125 17.542969 C 0.648438 17.101562 0.785156 16.609375 1.136719 16.296875 L 3.335938 14.292969 C 3.28125 13.867188 3.25 13.4375 3.25 13 C 3.25 12.5625 3.28125 12.132812 3.335938 11.710938 L 1.136719 9.710938 C 0.785156 9.394531 0.648438 8.902344 0.8125 8.460938 C 1.035156 7.855469 1.304688 7.277344 1.613281 6.71875 L 1.851562 6.308594 C 2.1875 5.75 2.5625 5.21875 2.976562 4.722656 C 3.273438 4.355469 3.773438 4.234375 4.21875 4.378906 L 7.046875 5.277344 C 7.730469 4.753906 8.480469 4.316406 9.28125 3.988281 L 9.917969 1.085938 C 10.019531 0.625 10.375 0.257812 10.84375 0.183594 C 11.542969 0.0625 12.265625 0 13 0 C 13.734375 0 14.457031 0.0625 15.15625 0.179688 C 15.625 0.253906 15.980469 0.621094 16.082031 1.082031 L 16.71875 3.980469 C 17.519531 4.3125 18.269531 4.75 18.953125 5.269531 L 21.78125 4.371094 C 22.226562 4.230469 22.726562 4.355469 23.023438 4.71875 C 23.4375 5.214844 23.8125 5.742188 24.148438 6.300781 L 24.386719 6.714844 C 24.695312 7.273438 24.964844 7.851562 25.1875 8.453125 Z M 13 17.0625 C 15.242188 17.0625 17.0625 15.242188 17.0625 13 C 17.0625 10.757812 15.242188 8.9375 13 8.9375 C 10.757812 8.9375 8.9375 10.757812 8.9375 13 C 8.9375 15.242188 10.757812 17.0625 13 17.0625 Z M 13 17.0625 "/>
</g>
</svg>
